<!DOCTYPE svg PUBLIC "-//W3C//DTD SVG 1.1//EN" "http://www.w3.org/Graphics/SVG/1.1/DTD/svg11.dtd">
<!-- Uploaded to: SVG Repo, www.svgrepo.com, Transformed by: SVG Repo Mixer Tools -->
<svg fill="#ffffff" height="800px" width="800px" version="1.1" id="Capa_1" xmlns="http://www.w3.org/2000/svg" xmlns:xlink="http://www.w3.org/1999/xlink" viewBox="0 0 490 490" xml:space="preserve" stroke="#ffffff">
<g id="SVGRepo_bgCarrier" stroke-width="0"/>
<g id="SVGRepo_tracerCarrier" stroke-linecap="round" stroke-linejoin="round"/>
<g id="SVGRepo_iconCarrier"> <g> <path d="M112.4,118.6L0,245l112.4,126.4H490V118.6H112.4z M373.7,172.7L301.4,245l72.1,72.4c3.8,3.9,3.8,10.1,0,14l0,0 c-3.9,3.9-10.2,3.9-14,0L287.4,259l-72,72c-3.7,3.7-9.8,4.2-13.8,0.7c-4.3-3.8-4.5-10.4-0.5-14.5l72.3-72.3l-72.1-72.1 c-3.9-3.9-4.1-10.6-0.1-14.4c3.9-3.7,10-3.7,13.8,0.2l72.3,72.3l72.1-72.1c3.9-3.9,10.6-4.1,14.4-0.1 C377.6,162.7,377.6,168.8,373.7,172.7z"/> </g> </g>
</svg>